<svg width="39" height="39" viewBox="0 0 39 39" fill="none" xmlns="http://www.w3.org/2000/svg">
<path d="M19.8319 10.5615C15.0679 10.5615 11.2253 14.4042 11.2253 19.1681C11.2253 23.9321 15.0679 27.7747 19.8319 27.7747C24.5958 27.7747 28.4384 23.9321 28.4384 19.1681C28.4384 14.4042 24.5958 10.5615 19.8319 10.5615ZM19.8319 24.7635C16.7533 24.7635 14.2365 22.2542 14.2365 19.1681C14.2365 16.082 16.7458 13.5727 19.8319 13.5727C22.9179 13.5727 25.4273 16.082 25.4273 19.1681C25.4273 22.2542 22.9105 24.7635 19.8319 24.7635ZM30.798 10.2095C30.798 11.3256 29.8991 12.2169 28.7905 12.2169C27.6744 12.2169 26.783 11.3181 26.783 10.2095C26.783 9.10089 27.6819 8.20203 28.7905 8.20203C29.8991 8.20203 30.798 9.10089 30.798 10.2095ZM36.4982 12.2469C36.3709 9.55781 35.7567 7.17584 33.7867 5.21332C31.8241 3.25081 29.4422 2.63659 26.7531 2.50176C23.9816 2.34446 15.6746 2.34446 12.9032 2.50176C10.2216 2.6291 7.83958 3.24332 5.86957 5.20583C3.89957 7.16835 3.29284 9.55032 3.15801 12.2394C3.00071 15.0109 3.00071 23.3179 3.15801 26.0893C3.28535 28.7784 3.89957 31.1604 5.86957 33.1229C7.83958 35.0854 10.2141 35.6997 12.9032 35.8345C15.6746 35.9918 23.9816 35.9918 26.7531 35.8345C29.4422 35.7071 31.8241 35.0929 33.7867 33.1229C35.7492 31.1604 36.3634 28.7784 36.4982 26.0893C36.6555 23.3179 36.6555 15.0184 36.4982 12.2469ZM32.9178 29.0631C32.3335 30.5312 31.2024 31.6623 29.7268 32.254C27.5171 33.1304 22.2738 32.9282 19.8319 32.9282C17.39 32.9282 12.1391 33.1229 9.93691 32.254C8.46878 31.6698 7.33771 30.5387 6.74596 29.0631C5.86957 26.8534 6.07182 21.61 6.07182 19.1681C6.07182 16.7262 5.87707 11.4754 6.74596 9.27318C7.33022 7.80504 8.46129 6.67397 9.93691 6.08222C12.1466 5.20583 17.39 5.40808 19.8319 5.40808C22.2738 5.40808 27.5246 5.21332 29.7268 6.08222C31.1949 6.66648 32.326 7.79755 32.9178 9.27318C33.7942 11.4829 33.5919 16.7262 33.5919 19.1681C33.5919 21.61 33.7942 26.8609 32.9178 29.0631Z" fill="white"/>
</svg>
