<svg width="34" height="34" viewBox="0 0 34 34" fill="none" xmlns="http://www.w3.org/2000/svg">
<path d="M31.5574 0.396973L2.78644 0.396973C1.46811 0.396973 0.396973 1.4831 0.396973 2.8164L0.396973 31.535C0.396973 32.8683 1.46811 33.9544 2.78644 33.9544L31.5574 33.9544C32.8758 33.9544 33.9544 32.8683 33.9544 31.535L33.9544 2.8164C33.9544 1.4831 32.8758 0.396973 31.5574 0.396973ZM10.5391 29.1605L5.56542 29.1605L5.56542 13.1458H10.5466L10.5466 29.1605H10.5391ZM8.05226 10.9586C6.45679 10.9586 5.16842 9.66272 5.16842 8.07473C5.16842 6.48675 6.45679 5.19089 8.05226 5.19089C9.64025 5.19089 10.9361 6.48675 10.9361 8.07473C10.9361 9.67021 9.64774 10.9586 8.05226 10.9586ZM29.183 29.1605H24.2093L24.2093 21.3704C24.2093 19.5127 24.1718 17.1233 21.625 17.1233C19.0333 17.1233 18.6363 19.1457 18.6363 21.2355L18.6363 29.1605H13.6626L13.6626 13.1458H18.4341V15.333H18.5015C19.1682 14.0746 20.7936 12.7488 23.213 12.7488C28.2466 12.7488 29.183 16.0671 29.183 20.3816L29.183 29.1605Z" fill="white"/>
</svg>
