<svg width="38" height="38" viewBox="0 0 38 38" fill="none" xmlns="http://www.w3.org/2000/svg">
<path d="M37.1846 19.1756C37.1846 8.91357 28.8702 0.599121 18.6082 0.599121C8.34619 0.599121 0.0317383 8.91357 0.0317383 19.1756C0.0317383 28.4473 6.82487 36.1325 15.7056 37.5273L15.7056 24.5455H10.9866V19.1756H15.7056L15.7056 15.0827C15.7056 10.4274 18.4771 7.85592 22.722 7.85592C24.7549 7.85592 26.8807 8.21846 26.8807 8.21846V12.7877L24.5377 12.7877C22.2306 12.7877 21.5107 14.2198 21.5107 15.6887V19.1756L26.6627 19.1756L25.8388 24.5455L21.5107 24.5455L21.5107 37.5273C30.3915 36.1325 37.1846 28.4473 37.1846 19.1756Z" fill="white"/>
</svg>
